<svg width="17" height="18" viewBox="0 0 17 18" fill="none" xmlns="http://www.w3.org/2000/svg">
<g clip-path="url(#clip0_928_575)">
<path d="M16.9995 9.20013C16.9995 8.45979 16.942 7.92041 16.8161 7.35992H8.67285V10.7001H13.4527C13.3562 11.5309 12.8362 12.7802 11.6793 13.6194L11.6634 13.7312L14.2382 15.8012L14.4166 15.8195C16.0553 14.2502 16.9995 11.9402 16.9995 9.20013Z" fill="#4285F4"/>
<path d="M8.67305 18.0002C11.0149 18.0002 12.9805 17.2002 14.4168 15.8199L11.6795 13.6202C10.9471 14.1506 9.96396 14.5194 8.67287 14.5194C6.37897 14.5194 4.43224 12.9496 3.73841 10.7794L3.63654 10.7884L0.959201 12.9389L0.923828 13.04C2.35111 15.9801 5.28136 18.0002 8.67305 18.0002Z" fill="#34A853"/>
<path d="M3.73939 10.7807C3.54963 10.2077 3.45194 9.60629 3.45022 9.00045C3.45022 8.38032 3.55634 7.78056 3.72984 7.22025L3.72471 7.10078L1.01376 4.91628L0.925333 4.96014C0.316918 6.21326 0 7.59691 0 9.00009C0 10.4033 0.316918 11.7869 0.925333 13.04L3.73939 10.7807Z" fill="#FBBC05"/>
<path d="M8.67376 3.48019C10.3021 3.48019 11.4008 4.21008 12.0276 4.81993L14.475 2.34032C12.9717 0.890466 11.0156 0 8.67394 0C5.28119 0 2.35182 2.02007 0.925781 4.96069L3.72993 7.22026C4.43384 5.05007 6.38057 3.48019 8.67376 3.48019Z" fill="#EB4335"/>
</g>
<defs>
<clipPath id="clip0_928_575">
<rect width="17" height="18" fill="white"/>
</clipPath>
</defs>
</svg>
